<?xml version="1.0" encoding="utf-8"?>
<!-- Generator: Adobe Illustrator 16.0.3, SVG Export Plug-In . SVG Version: 6.00 Build 0)  -->
<!DOCTYPE svg PUBLIC "-//W3C//DTD SVG 1.1//EN" "http://www.w3.org/Graphics/SVG/1.1/DTD/svg11.dtd">
<svg version="1.1" id="Layer_1" xmlns="http://www.w3.org/2000/svg" xmlns:xlink="http://www.w3.org/1999/xlink" x="0px" y="0px"
	 width="162px" height="128.4px" viewBox="0 0 162 128.4" enable-background="new 0 0 162 128.4" xml:space="preserve">
<g>
	<path fill="#FEFEFE" d="M0.24,0.24c54,0,108,0,162,0c0,42.88,0,85.76,0,128.64c-54,0-108,0-162,0C0.24,86,0.24,43.12,0.24,0.24z
		 M21.646,68.978c5.441,6.924,11.732,12.779,18.893,17.694c10.179,6.985,21.335,11.422,33.673,12.646
		c7.565,0.749,15.099,0.232,22.537-1.203c15.174-2.932,28.478-9.578,39.58-20.432c2.976-2.908,5.677-6.05,7.897-9.618
		c-4.016-5.362-8.685-10.04-13.901-14.186c-14.866-11.811-31.794-17.445-50.768-16.903c-1.873,0.054-3.747,0.268-5.605,0.516
		c-8.584,1.142-16.674,3.832-24.291,7.929C38.718,51.305,29.458,59.198,21.646,68.978z M112.822,36.449
		c-0.105-0.005-0.211-0.011-0.316-0.017c-0.22-1.852-0.4-3.708-0.686-5.55c-0.08-0.521-0.336-1.201-0.733-1.45
		c-0.748-0.468-1.66-0.673-2.548-1.002c-0.682,1.461-1.32,2.827-1.957,4.195c-0.646,1.394-1.292,2.787-1.962,4.23
		c0.817,0.307,1.546,0.58,2.329,0.874c0.848-1.78,1.65-3.465,2.453-5.149c0.441,1.258,0.631,2.433,0.742,3.612
		c0.283,3,0.271,3.001,3.078,4.124c0.066,0.026,0.148,0.021,0.344,0.045c1.313-2.739,2.639-5.51,3.979-8.307
		c-0.779-0.342-1.456-0.638-2.154-0.942C114.499,32.966,113.66,34.708,112.822,36.449z M126.245,47.55
		c3.651,0.024,5.989-3.216,5.028-6.094c-0.985-2.953-5.006-4.896-7.935-3.836c-2.522,0.914-3.903,3.57-2.827,5.72
		C121.805,45.92,124.014,47.268,126.245,47.55z M95.313,34.795c0.018-0.077,0.035-0.152,0.053-0.229
		c0.398,0,0.803,0.035,1.197-0.006c1.944-0.203,3.346-1.378,3.877-3.226c0.564-1.964-0.012-4.032-1.426-5.109
		c-2.029-1.549-5.414-1.688-7.564-0.26c-1.688,1.122-2.342,2.783-2.18,4.75c0.141,1.683,1.287,2.619,2.737,3.162
		C93.073,34.277,94.207,34.496,95.313,34.795z M76.067,24.779c0,3.2,0,6.29,0,9.562c2.407-0.321,4.569-0.583,6.721-0.909
		c1.163-0.177,1.644-1.103,1.815-2.113c0.155-0.908-0.345-1.592-1.158-2.033c-0.229-0.124-0.43-0.303-0.672-0.478
		c0.416-0.461,0.938-0.813,1.11-1.291c0.209-0.576,0.378-1.42,0.104-1.857c-0.373-0.592-1.182-1.269-1.809-1.275
		C80.12,24.364,78.059,24.629,76.067,24.779z M50.175,31.182c-1.333,0.835-2.738,1.518-3.894,2.494
		c-1.258,1.063-1.997,2.541-1.545,4.271c0.481,1.848,1.431,3.398,3.423,3.938c1.744,0.474,3.291-0.188,4.771-1.031
		c1.556-0.888,1.628-1.194,0.717-2.834c-0.414,0.305-0.79,0.71-1.253,0.895c-0.858,0.341-1.775,0.787-2.654,0.76
		c-1.109-0.033-1.855-0.93-2.129-1.994c-0.318-1.238-0.065-2.443,1.014-3.223c0.849-0.61,1.843-1.02,2.79-1.526
		C51.075,32.45,50.713,31.939,50.175,31.182z M36.644,48.479c0.357,0.436,0.778,0.951,1.322,1.615
		c1.15-0.922,2.357-1.665,3.272-2.674c1.512-1.665,0.812-3.563-1.384-4.007c-0.814-0.164-1.676-0.091-2.492-0.25
		c-0.412-0.081-0.993-0.373-1.088-0.69c-0.092-0.31,0.25-0.887,0.566-1.145c0.481-0.395,1.104-0.616,1.715-0.935
		c-0.455-0.482-0.938-0.995-1.528-1.62c-0.994,0.815-2.025,1.514-2.861,2.396c-0.688,0.727-1.072,1.667-0.584,2.746
		c0.475,1.049,1.334,1.412,2.392,1.484c0.915,0.063,1.841,0.054,2.742,0.202c0.871,0.144,1.078,0.77,0.406,1.334
		C38.408,47.535,37.531,47.94,36.644,48.479z M59.771,37.628c0.921-0.289,1.738-0.546,2.608-0.818
		c-0.799-3.028-1.584-6.001-2.383-9.03c-0.978,0.305-1.835,0.573-2.766,0.864C58.086,31.665,58.923,34.626,59.771,37.628z
		 M69.677,30.138c-1.235,0.303-2.329,0.57-3.476,0.853c0.061,0.582,0.111,1.074,0.169,1.627c1.218-0.268,2.318-0.509,3.471-0.762
		c0-0.3,0.019-0.535-0.004-0.768C69.81,30.818,69.748,30.551,69.677,30.138z"/>
	<path fill="#0E57A7" d="M21.646,68.978c7.812-9.78,17.071-17.673,28.015-23.559c7.617-4.097,15.707-6.787,24.291-7.929
		c1.858-0.248,3.732-0.462,5.605-0.516c18.974-0.542,35.901,5.093,50.768,16.903c5.218,4.146,9.887,8.823,13.901,14.186
		c-2.222,3.568-4.924,6.71-7.897,9.618c-11.104,10.854-24.406,17.5-39.58,20.432c-7.438,1.437-14.972,1.952-22.537,1.203
		c-12.338-1.224-23.494-5.659-33.673-12.646C33.379,81.758,27.088,75.902,21.646,68.978z M23.484,68.722
		c0.323,0.43,0.507,0.688,0.704,0.936c4.123,5.145,8.865,9.651,14.111,13.628c11.133,8.438,23.524,13.83,37.552,14.774
		c13.87,0.935,27.229-1.396,39.818-7.454c10.349-4.98,19.22-11.815,26.019-21.192c0.678-0.934,0.578-1.512-0.088-2.348
		c-5.886-7.409-12.928-13.506-21.057-18.302c-15.629-9.222-32.469-12.641-50.331-9.265C50.959,43.141,35.989,53.961,23.484,68.722z"
		/>
	<path fill="#0857A7" d="M112.822,36.449c0.838-1.742,1.677-3.483,2.568-5.336c0.697,0.305,1.373,0.601,2.153,0.942
		c-1.34,2.796-2.666,5.566-3.978,8.307c-0.195-0.024-0.277-0.019-0.346-0.045c-2.808-1.123-2.794-1.124-3.078-4.124
		c-0.11-1.18-0.3-2.354-0.74-3.612c-0.803,1.686-1.606,3.37-2.454,5.149c-0.783-0.293-1.513-0.567-2.329-0.874
		c0.67-1.444,1.314-2.838,1.962-4.23c0.637-1.368,1.274-2.734,1.957-4.195c0.888,0.33,1.8,0.535,2.548,1.002
		c0.398,0.249,0.652,0.929,0.732,1.45c0.285,1.842,0.467,3.698,0.687,5.55C112.611,36.438,112.717,36.444,112.822,36.449z"/>
	<path fill="#0756A7" d="M126.245,47.55c-2.231-0.281-4.44-1.63-5.733-4.21c-1.076-2.149,0.307-4.806,2.828-5.72
		c2.93-1.061,6.948,0.883,7.936,3.836C132.234,44.334,129.896,47.574,126.245,47.55z M128.896,42.207
		c0.008-1.508-1.338-2.686-3.057-2.676c-1.498,0.008-2.941,1.425-2.938,2.883c0.004,1.462,1.396,2.856,2.84,2.842
		C127.246,45.24,128.889,43.652,128.896,42.207z"/>
	<path fill="#0756A7" d="M95.313,34.795c-1.104-0.299-2.238-0.518-3.306-0.918c-1.45-0.543-2.598-1.479-2.737-3.162
		c-0.162-1.967,0.49-3.628,2.18-4.75c2.15-1.428,5.535-1.289,7.564,0.26c1.414,1.077,1.99,3.146,1.426,5.109
		c-0.531,1.848-1.933,3.022-3.877,3.226c-0.396,0.042-0.799,0.006-1.197,0.006C95.348,34.642,95.329,34.718,95.313,34.795z
		 M92.104,29.969c-0.012,1.414,1.295,2.761,2.723,2.807c1.584,0.05,3.037-1.536,3.07-3.355c0.025-1.349-1.213-2.524-2.649-2.519
		C93.462,26.91,92.116,28.223,92.104,29.969z"/>
	<path fill="#0655A6" d="M76.067,24.779c1.991-0.15,4.053-0.416,6.113-0.395c0.627,0.007,1.436,0.684,1.809,1.275
		c0.273,0.438,0.104,1.281-0.104,1.857c-0.174,0.478-0.694,0.83-1.11,1.291c0.242,0.175,0.441,0.354,0.672,0.478
		c0.813,0.441,1.313,1.125,1.158,2.033c-0.172,1.011-0.652,1.937-1.815,2.113c-2.151,0.326-4.313,0.588-6.721,0.909
		C76.067,31.069,76.067,27.979,76.067,24.779z M78.731,32.248c1.161,0.109,2.204,0.197,2.9-0.779
		c0.171-0.238,0.155-0.857-0.033-1.062c-0.819-0.879-1.832-0.664-2.867-0.354C78.731,30.77,78.731,31.435,78.731,32.248z
		 M78.478,28.399c1.073-0.447,1.908-0.745,2.677-1.165c0.125-0.068,0.045-0.947-0.095-0.994c-0.797-0.269-1.641-0.399-2.582-0.6
		C78.478,26.635,78.478,27.257,78.478,28.399z"/>
	<path fill="#0957A7" d="M50.175,31.182c0.538,0.757,0.9,1.268,1.24,1.747c-0.947,0.508-1.941,0.915-2.79,1.526
		c-1.079,0.778-1.332,1.984-1.014,3.222c0.273,1.065,1.02,1.962,2.129,1.995c0.879,0.027,1.796-0.419,2.654-0.76
		c0.463-0.185,0.839-0.59,1.253-0.895c0.911,1.64,0.839,1.947-0.717,2.834c-1.48,0.845-3.027,1.505-4.771,1.031
		c-1.992-0.54-2.941-2.09-3.423-3.938c-0.452-1.73,0.287-3.207,1.545-4.271C47.437,32.699,48.842,32.017,50.175,31.182z"/>
	<path fill="#0957A7" d="M36.644,48.479c0.888-0.539,1.765-0.944,2.479-1.543c0.672-0.564,0.465-1.19-0.406-1.334
		c-0.901-0.148-1.827-0.14-2.742-0.202c-1.058-0.072-1.917-0.436-2.392-1.484c-0.488-1.079-0.104-2.02,0.584-2.746
		c0.836-0.882,1.867-1.58,2.861-2.396c0.59,0.625,1.073,1.137,1.528,1.62c-0.61,0.318-1.233,0.541-1.715,0.935
		c-0.316,0.258-0.658,0.835-0.566,1.145c0.095,0.317,0.676,0.609,1.088,0.69c0.816,0.16,1.678,0.087,2.492,0.25
		c2.195,0.442,2.896,2.342,1.384,4.007c-0.915,1.009-2.122,1.751-3.272,2.674C37.422,49.43,37.001,48.915,36.644,48.479z"/>
	<path fill="#0856A7" d="M59.771,37.628c-0.849-3.002-1.686-5.963-2.54-8.985c0.931-0.291,1.788-0.56,2.766-0.864
		c0.799,3.029,1.584,6.002,2.383,9.03C61.51,37.082,60.692,37.339,59.771,37.628z"/>
	<path fill="#0E57A7" d="M69.677,30.138c0.071,0.412,0.133,0.681,0.16,0.95c0.022,0.231,0.004,0.468,0.004,0.768
		c-1.152,0.253-2.253,0.495-3.471,0.762c-0.058-0.553-0.108-1.045-0.169-1.627C67.348,30.709,68.441,30.44,69.677,30.138z"/>
	<path fill="#FCFDFD" d="M23.484,68.722C35.989,53.961,50.959,43.14,70.213,39.501c17.862-3.376,34.702,0.042,50.331,9.265
		c8.129,4.795,15.171,10.893,21.058,18.302c0.664,0.836,0.765,1.414,0.086,2.348c-6.799,9.376-15.668,16.211-26.018,21.192
		c-12.589,6.06-25.949,8.389-39.818,7.454C61.824,97.116,49.433,91.724,38.3,83.286c-5.246-3.977-9.988-8.483-14.111-13.628
		C23.991,69.411,23.808,69.152,23.484,68.722z M84.204,43.447c-0.113-0.822-0.754-0.971-1.315-0.748
		c-0.363,0.145-0.766,0.724-0.779,1.121c-0.073,2.219-0.035,4.443-0.035,6.543c-3.272,0.438-6.37,0.851-9.52,1.271
		c-0.5-1.997-1.01-4.003-1.504-6.013c-0.193-0.787-0.637-1.182-1.469-1.003c-0.882,0.189-0.831,0.834-0.702,1.501
		c0.046,0.234,0.122,0.462,0.179,0.694c0.45,1.849,0.898,3.696,1.321,5.435c-2.858,1.245-5.587,2.433-8.425,3.668
		c-0.971-1.586-1.987-3.244-3.002-4.902c-0.429-0.701-0.962-1.301-1.834-0.771c-0.912,0.553-0.504,1.264-0.077,1.954
		c1.02,1.65,2.012,3.317,2.959,4.884c-2.569,2.072-5.046,4.068-7.566,6.102c-0.174-0.184-0.393-0.405-0.603-0.637
		c-1.13-1.242-2.248-2.495-3.39-3.726c-0.507-0.546-1.089-0.659-1.675-0.101c-0.552,0.525-0.413,1.066,0.014,1.586
		c0.203,0.246,0.438,0.467,0.65,0.705c1.18,1.332,2.357,2.666,3.493,3.95c-0.877,1.122-1.648,2.108-2.406,3.078
		c19.744,21.374,54.913,19.836,70.426-0.603c-1.209-1.311-2.426-2.629-3.836-4.156c1.252-1.167,2.511-2.334,3.76-3.511
		c0.23-0.218,0.583-0.466,0.599-0.717c0.03-0.486,0.023-1.201-0.271-1.422c-0.295-0.223-1.127-0.15-1.428,0.12
		c-1.475,1.326-2.852,2.763-4.187,4.083c-2.506-1.78-4.964-3.526-7.44-5.288c1.004-1.81,2.01-3.615,3.008-5.428
		c0.386-0.7,0.703-1.45-0.195-1.979c-0.936-0.554-1.355,0.136-1.748,0.846c-1.014,1.844-2.045,3.678-3.042,5.469
		c-2.97-1.167-5.839-2.294-8.774-3.449c0.521-2.067,1.039-4.149,1.575-6.226c0.218-0.839,0.164-1.582-0.823-1.778
		c-0.97-0.192-1.168,0.564-1.353,1.301c-0.521,2.08-1.067,4.153-1.618,6.283c-0.97-0.167-1.861-0.356-2.764-0.47
		c-2.053-0.257-4.109-0.477-6.164-0.71C84.229,48.082,84.217,45.765,84.204,43.447z M109.878,83.783
		c0.556,1.561,1.081,3.036,1.63,4.577c0.332-0.155,0.572-0.269,0.827-0.387c-0.285-0.903-0.553-1.75-0.836-2.646
		c1.491,0.149,1.856,2.514,3.767,1.637c-0.492-1.382-0.953-2.646-1.393-3.921c-0.275-0.802-0.641-0.607-1.068-0.174
		c0.319,0.897,0.619,1.742,0.924,2.597C112.328,85.13,111.904,82.811,109.878,83.783z M36.86,71.129
		c-1.151,1.228-2.226,2.371-3.321,3.538c1.118,1.03,2.037,2.239,3.658,1.824c1.016-0.26,1.787-0.99,1.9-2.079
		C39.265,72.809,38.012,72.07,36.86,71.129z M61.438,86.843c0.025-1.445-0.942-2.523-2.285-2.546
		c-1.362-0.021-2.333,0.979-2.377,2.455c-0.047,1.562,0.778,2.521,2.192,2.556C60.444,89.342,61.412,88.377,61.438,86.843z
		 M128.232,78.05c-0.244-0.199-0.428-0.343-0.604-0.493c-0.631-0.544-1.519-0.741-1.534-1.955c-0.01-0.772-1.005-0.984-1.736-0.595
		c-0.68,0.362-1.271,0.892-1.93,1.367c1.043,1.362,1.981,2.591,2.949,3.856c0.313-0.235,0.563-0.422,0.811-0.608
		c-0.379-0.541-0.729-1.043-1.099-1.567c1.142-0.889,1.586,0.409,2.396,0.591C127.698,78.476,127.934,78.288,128.232,78.05z
		 M80.885,93.33c0-0.648,0-1.23,0-1.813c0.129-0.065,0.257-0.132,0.386-0.196c0.277,0.418,0.661,0.801,0.807,1.261
		c0.221,0.7,0.512,1.04,1.337,0.672c-0.25-0.708-0.496-1.404-0.742-2.104c0.276-0.589,0.64-1.389,0.386-1.831
		c-0.723-1.255-2.021-0.662-3.18-0.748c0,1.651,0,3.193,0,4.76C80.197,93.33,80.492,93.33,80.885,93.33z M106.746,87.229
		c-0.777-0.332-1.775,1.2-2.107-0.557c0.58-0.262,1.11-0.5,1.645-0.739c-0.43-0.81-0.703-0.767-2.989,0.429
		c0.581,1.447,1.165,2.902,1.745,4.349c2.85-0.88,2.871-0.896,2.465-1.768c-0.578,0.208-1.16,0.417-1.788,0.642
		c-0.159-0.438-0.276-0.758-0.299-0.82C105.66,87.873,107.079,88.404,106.746,87.229z M131.191,74.473
		c-0.301-0.309-0.539-0.553-0.828-0.849c0.436-0.491,0.797-0.898,1.406-1.589c-0.557,0-0.934-0.115-1.105,0.024
		c-0.326,0.264-0.534,0.673-0.826,1.067c-0.396-0.432-0.602-0.654-0.797-0.87c1.148-1.352,1.148-1.352,0.538-1.911
		c-0.642,0.688-1.283,1.378-1.97,2.115c1.209,1.131,2.361,2.207,3.556,3.322c0.715-0.771,1.362-1.471,2.14-2.307
		c-0.203-0.192-0.395-0.374-0.611-0.58C132.175,73.441,131.764,73.873,131.191,74.473z M72.796,87.888
		c-0.131,1.647-0.253,3.18-0.373,4.693c2.213,0.556,2.854,0.469,2.998-0.383c-0.619-0.09-1.238-0.18-1.966-0.284
		c0.081-0.447,0.146-0.805,0.211-1.162c0.546-0.43,1.657,0.721,1.808-0.688c-0.649-0.063-1.188-0.115-1.764-0.171
		c0-0.286-0.015-0.483,0.005-0.679c0.012-0.109,0.078-0.215,0.116-0.313c1.753-0.136,1.753-0.136,1.824-0.764
		C74.749,88.06,73.845,87.979,72.796,87.888z M65.532,85.688c-0.097,1.781-0.202,3.208-0.229,4.635
		c-0.005,0.272,0.243,0.707,0.472,0.787c0.291,0.102,0.826,0.044,1.006-0.163c0.976-1.123,1.874-2.313,2.991-3.723
		c-2.219-0.237-2.154,2.023-3.407,2.527C65.985,88.518,67.294,86.959,65.532,85.688z M43.408,82.088
		c0.64,0.379,1.175,0.866,1.788,1.005c0.49,0.109,1.269-0.038,1.563-0.38c0.288-0.335,0.178-1.062,0.138-1.607
		c-0.018-0.238-0.334-0.441-0.443-0.691c-0.113-0.26-0.139-0.558-0.202-0.839c0.327,0.016,0.673-0.03,0.975,0.065
		c0.242,0.075,0.432,0.32,0.688,0.526c0.192-0.201,0.374-0.392,0.618-0.647c-0.452-0.304-0.822-0.73-1.243-0.788
		c-0.604-0.084-1.472-0.112-1.802,0.236c-0.306,0.324-0.104,1.184-0.026,1.793c0.063,0.486,0.276,0.954,0.423,1.432
		c-0.506-0.201-1.015-0.396-1.517-0.605c-0.104-0.043-0.187-0.136-0.319-0.234C43.865,81.561,43.693,81.759,43.408,82.088z
		 M100.232,87.215c-0.078-0.11-0.157-0.223-0.236-0.334c-0.313,0-0.635-0.038-0.941,0.008c-1.059,0.155-2.043,0.649-2.158,1.735
		c-0.094,0.857,0.123,1.931,0.609,2.622c0.615,0.877,1.745,0.839,2.744,0.45c0.2-0.079,0.333-0.333,0.497-0.506
		c-0.235-0.091-0.481-0.28-0.707-0.256c-1.37,0.145-2.037-0.254-2.188-1.374c-0.145-1.073,0.354-1.633,1.629-1.912
		C99.75,87.589,99.982,87.363,100.232,87.215z M54.166,83.635c0.075-0.375,0.26-0.712,0.162-0.902
		c-0.405-0.792-1.943-1.296-2.854-1.004c-1.14,0.365-1.923,1.469-1.861,2.621c0.049,0.925,0.992,2.107,1.867,2.252
		c0.205,0.033,0.453-0.194,0.769-0.344c-1.716-1.314-1.946-1.979-1.167-2.992C51.833,82.286,52.651,82.35,54.166,83.635z
		 M86.18,88.722c0.658,1.438,1.816,2.683,1.534,4.426c-0.017,0.103,0.575,0.304,0.871,0.452c0.187-1.053,0.228-1.893,0.499-2.647
		c0.273-0.763,0.777-1.443,1.216-2.226c-1.729-0.501-1.302,1.345-2.052,1.786C87.573,89.862,87.881,88.229,86.18,88.722z
		 M120.561,83.139c-0.656-1.15-1.278-2.244-1.924-3.375c0.383-0.271,0.727-0.513,1.07-0.756c-0.523-0.646-1.471-0.381-3.133,0.904
		c-0.189,0.147-0.172,0.563-0.313,1.084c0.699-0.333,1.049-0.5,1.432-0.683c0.675,1.142,1.315,2.227,1.992,3.37
		C120.004,83.485,120.26,83.326,120.561,83.139z M39.34,79.108c0.299,0.221,0.566,0.419,0.856,0.633
		c1.118-1.23,2.165-2.382,3.251-3.576c-0.292-0.215-0.561-0.412-0.852-0.626C41.505,76.735,40.482,77.856,39.34,79.108z"/>
	<path fill="#FAFBFD" d="M128.896,42.207c-0.01,1.446-1.65,3.034-3.154,3.049c-1.443,0.016-2.836-1.379-2.84-2.842
		c-0.004-1.458,1.439-2.875,2.938-2.883C127.559,39.521,128.904,40.699,128.896,42.207z"/>
	<path fill="#FAFBFD" d="M92.104,29.969c0.014-1.746,1.358-3.059,3.144-3.066c1.438-0.007,2.676,1.17,2.649,2.519
		c-0.033,1.819-1.486,3.405-3.07,3.355C93.396,32.729,92.092,31.383,92.104,29.969z"/>
	<path fill="#F1F5F9" d="M78.731,32.248c0-0.813,0-1.479,0-2.195c1.035-0.31,2.048-0.524,2.867,0.354
		c0.188,0.204,0.204,0.823,0.033,1.062C80.936,32.445,79.893,32.357,78.731,32.248z"/>
	<path fill="#F3F6FA" d="M78.478,28.399c0-1.144,0-1.766,0-2.759c0.941,0.2,1.785,0.332,2.582,0.6
		c0.14,0.047,0.22,0.925,0.095,0.994C80.386,27.655,79.551,27.953,78.478,28.399z"/>
	<path fill="#0455A6" d="M84.242,50.4c2.055,0.233,4.111,0.453,6.164,0.71c0.902,0.113,1.794,0.302,2.764,0.47
		c0.551-2.129,1.098-4.203,1.618-6.283c0.185-0.736,0.383-1.494,1.353-1.301c0.987,0.197,1.041,0.939,0.823,1.778
		C96.427,47.85,95.91,49.932,95.389,52c2.937,1.154,5.805,2.281,8.774,3.449c0.997-1.791,2.028-3.625,3.042-5.469
		c0.393-0.71,0.813-1.399,1.748-0.847c0.898,0.53,0.581,1.281,0.195,1.98c-0.998,1.812-2.004,3.618-3.008,5.428
		c2.478,1.761,4.936,3.507,7.44,5.288c1.335-1.322,2.712-2.757,4.187-4.083c0.301-0.271,1.133-0.342,1.428-0.12
		c0.293,0.221,0.301,0.936,0.271,1.422c-0.016,0.251-0.368,0.499-0.599,0.717c-1.249,1.177-2.508,2.344-3.76,3.511
		c1.41,1.526,2.627,2.847,3.836,4.156c-15.514,20.438-50.683,21.977-70.426,0.603c0.758-0.969,1.529-1.956,2.406-3.078
		c-1.136-1.284-2.313-2.618-3.493-3.95c-0.213-0.238-0.447-0.459-0.65-0.706c-0.427-0.519-0.565-1.06-0.014-1.585
		c0.586-0.559,1.168-0.445,1.675,0.101c1.142,1.23,2.26,2.483,3.39,3.726c0.21,0.231,0.429,0.454,0.603,0.636
		c2.521-2.032,4.997-4.028,7.566-6.101c-0.947-1.567-1.939-3.233-2.959-4.884c-0.427-0.69-0.835-1.4,0.077-1.954
		c0.872-0.529,1.405,0.07,1.834,0.771c1.015,1.66,2.031,3.317,3.002,4.903c2.838-1.236,5.566-2.423,8.425-3.668
		c-0.423-1.738-0.871-3.586-1.321-5.435c-0.057-0.232-0.133-0.46-0.179-0.694c-0.129-0.667-0.18-1.312,0.702-1.501
		c0.832-0.179,1.275,0.216,1.469,1.003c0.494,2.01,1.004,4.016,1.504,6.013c3.149-0.42,6.247-0.834,9.52-1.271
		c0-2.102-0.038-4.324,0.035-6.543c0.015-0.396,0.416-0.977,0.779-1.121c0.563-0.224,1.202-0.075,1.315,0.748
		c-0.068,1.753-0.161,3.505-0.19,5.259C84.005,49.269,84.161,49.835,84.242,50.4z M107.602,67.165
		c-4.076-4.884-8.937-8.74-14.955-10.993c-7.629-2.855-15.05-2.334-22.206,1.595c-4.365,2.396-8.035,5.621-11.249,9.407
		c-0.646,0.763-0.621,1.231-0.035,2.01C69.753,83.259,94.359,86.248,107.602,67.165z"/>
	<path fill="#1358A8" d="M109.878,83.783c2.026-0.973,2.45,1.347,3.851,1.684c-0.305-0.854-0.604-1.698-0.924-2.597
		c0.43-0.435,0.793-0.628,1.068,0.174c0.439,1.273,0.9,2.539,1.393,3.921c-1.91,0.877-2.274-1.486-3.767-1.637
		c0.283,0.896,0.551,1.742,0.836,2.646c-0.255,0.118-0.495,0.23-0.827,0.387C110.959,86.819,110.434,85.344,109.878,83.783z
		 M111.396,85.042c0.028,0.055,0.058,0.105,0.086,0.158c0.025-0.027,0.078-0.06,0.072-0.079c-0.012-0.057-0.047-0.106-0.072-0.16
		C111.455,84.986,111.428,85.012,111.396,85.042z"/>
	<path fill="#1257A7" d="M36.86,71.129c1.151,0.941,2.404,1.681,2.237,3.283c-0.113,1.089-0.885,1.819-1.9,2.079
		c-1.621,0.415-2.54-0.794-3.658-1.824C34.635,73.5,35.709,72.355,36.86,71.129z M37.113,72.402
		c-0.765,0.817-1.48,1.584-2.191,2.345c1.033,1.065,1.878,1.108,2.686,0.228C38.407,74.099,38.31,73.452,37.113,72.402z"/>
	<path fill="#1358A8" d="M61.438,86.843c-0.026,1.534-0.994,2.499-2.47,2.465c-1.414-0.033-2.239-0.994-2.192-2.556
		c0.044-1.476,1.015-2.478,2.377-2.455C60.496,84.318,61.464,85.396,61.438,86.843z M60.312,86.8
		c-0.086-0.744-0.165-1.639-1.255-1.614c-0.976,0.021-1.185,0.813-1.196,1.62c-0.014,0.862,0.229,1.701,1.245,1.693
		C60.043,88.491,60.268,87.686,60.312,86.8z"/>
	<path fill="#175BA9" d="M128.232,78.05c-0.299,0.238-0.534,0.427-0.748,0.596c-0.81-0.182-1.254-1.479-2.396-0.591
		c0.368,0.524,0.72,1.026,1.099,1.567c-0.246,0.188-0.496,0.373-0.811,0.608c-0.968-1.267-1.906-2.494-2.949-3.856
		c0.659-0.477,1.25-1.005,1.93-1.367c0.731-0.391,1.728-0.179,1.736,0.595c0.016,1.214,0.903,1.411,1.534,1.955
		C127.805,77.707,127.988,77.85,128.232,78.05z M124.518,77.385c0.166,0.008,0.332,0.014,0.498,0.021
		c0.066-0.455,0.133-0.911,0.198-1.366c-0.461,0-0.922,0-1.681,0C124.025,76.714,124.271,77.05,124.518,77.385z"/>
	<path fill="#0C54A5" d="M80.885,93.33c-0.393,0-0.688,0-1.007,0c0-1.565,0-3.107,0-4.76c1.157,0.086,2.457-0.507,3.179,0.748
		c0.256,0.442-0.107,1.242-0.385,1.831c0.246,0.698,0.492,1.396,0.742,2.104c-0.825,0.368-1.116,0.028-1.337-0.672
		c-0.146-0.46-0.529-0.843-0.807-1.261c-0.129,0.064-0.257,0.131-0.386,0.196C80.885,92.099,80.885,92.681,80.885,93.33z
		 M80.887,90.694c0.753,0.098,1.395-0.003,1.296-0.802c-0.035-0.281-0.726-0.481-1.296-0.829
		C80.887,89.828,80.887,90.214,80.887,90.694z"/>
	<path fill="#1257A7" d="M106.746,87.229c0.333,1.176-1.086,0.645-1.33,1.534c0.021,0.063,0.139,0.382,0.299,0.82
		c0.628-0.225,1.21-0.434,1.788-0.642c0.406,0.871,0.384,0.888-2.465,1.768c-0.58-1.445-1.164-2.9-1.745-4.349
		c2.286-1.194,2.561-1.237,2.989-0.429c-0.533,0.239-1.063,0.479-1.646,0.739C104.971,88.429,105.969,86.896,106.746,87.229z"/>
	<path fill="#175BA9" d="M131.191,74.473c0.572-0.601,0.982-1.031,1.5-1.574c0.219,0.206,0.41,0.388,0.613,0.58
		c-0.777,0.836-1.426,1.536-2.141,2.307c-1.193-1.115-2.346-2.191-3.557-3.322c0.688-0.736,1.328-1.426,1.971-2.115
		c0.609,0.56,0.609,0.56-0.538,1.911c0.196,0.216,0.401,0.438,0.797,0.87c0.292-0.396,0.5-0.805,0.826-1.067
		c0.173-0.14,0.55-0.024,1.106-0.024c-0.61,0.689-0.973,1.098-1.408,1.589C130.652,73.921,130.893,74.165,131.191,74.473z"/>
	<path fill="#0C52A4" d="M72.796,87.888c1.049,0.092,1.953,0.172,2.859,0.251c-0.071,0.628-0.071,0.628-1.824,0.764
		c-0.038,0.099-0.104,0.203-0.116,0.313c-0.02,0.194-0.005,0.393-0.005,0.679c0.576,0.056,1.114,0.107,1.764,0.171
		c-0.15,1.408-1.262,0.259-1.808,0.688c-0.065,0.357-0.13,0.715-0.211,1.162c0.728,0.104,1.347,0.194,1.966,0.284
		c-0.144,0.852-0.785,0.938-2.998,0.383C72.543,91.067,72.665,89.536,72.796,87.888z"/>
	<path fill="#1257A7" d="M65.532,85.688c1.762,1.271,0.453,2.829,0.833,4.064c1.253-0.505,1.188-2.767,3.407-2.528
		c-1.117,1.408-2.016,2.6-2.991,3.723c-0.18,0.207-0.715,0.265-1.006,0.163c-0.229-0.08-0.477-0.515-0.472-0.787
		C65.33,88.896,65.436,87.471,65.532,85.688z"/>
	<path fill="#1558A8" d="M43.408,82.088c0.285-0.329,0.457-0.526,0.639-0.736c0.133,0.1,0.216,0.191,0.319,0.234
		c0.502,0.209,1.011,0.404,1.517,0.605c-0.146-0.478-0.36-0.944-0.423-1.432c-0.078-0.609-0.279-1.469,0.026-1.793
		c0.33-0.35,1.198-0.32,1.802-0.236c0.421,0.058,0.791,0.484,1.243,0.788c-0.244,0.257-0.426,0.446-0.618,0.647
		c-0.256-0.206-0.445-0.451-0.688-0.526c-0.302-0.097-0.647-0.051-0.975-0.065c0.063,0.281,0.089,0.579,0.202,0.839
		c0.109,0.25,0.426,0.453,0.443,0.691c0.04,0.547,0.15,1.272-0.138,1.607c-0.294,0.341-1.072,0.489-1.563,0.38
		C44.583,82.954,44.048,82.467,43.408,82.088z"/>
	<path fill="#1257A7" d="M100.232,87.215c-0.25,0.148-0.482,0.374-0.752,0.435c-1.276,0.28-1.773,0.839-1.629,1.912
		c0.15,1.12,0.817,1.519,2.188,1.374c0.225-0.024,0.471,0.165,0.707,0.256c-0.164,0.173-0.297,0.427-0.497,0.506
		c-0.999,0.389-2.129,0.427-2.744-0.45c-0.485-0.691-0.703-1.765-0.61-2.622c0.117-1.086,1.102-1.58,2.16-1.735
		c0.307-0.046,0.627-0.008,0.94-0.008C100.075,86.992,100.154,87.104,100.232,87.215z"/>
	<path fill="#1055A6" d="M54.166,83.635c-1.515-1.284-2.333-1.349-3.084-0.369c-0.779,1.014-0.549,1.678,1.167,2.992
		c-0.315,0.148-0.563,0.377-0.769,0.344c-0.875-0.145-1.818-1.327-1.867-2.252c-0.062-1.152,0.722-2.256,1.861-2.621
		c0.91-0.292,2.448,0.212,2.854,1.004C54.426,82.923,54.241,83.26,54.166,83.635z"/>
	<path fill="#2161AC" d="M86.18,88.722c1.701-0.493,1.395,1.141,2.068,1.791c0.75-0.441,0.32-2.287,2.052-1.786
		c-0.438,0.781-0.94,1.463-1.216,2.226c-0.271,0.756-0.313,1.596-0.499,2.647c-0.296-0.148-0.888-0.351-0.871-0.452
		C87.996,91.404,86.838,90.161,86.18,88.722z"/>
	<path fill="#1558A8" d="M120.561,83.139c-0.301,0.188-0.557,0.347-0.873,0.546c-0.678-1.145-1.318-2.229-1.994-3.37
		c-0.381,0.183-0.73,0.35-1.43,0.683c0.139-0.521,0.121-0.937,0.312-1.084c1.661-1.285,2.608-1.55,3.133-0.904
		c-0.345,0.243-0.688,0.484-1.069,0.756C119.281,80.895,119.904,81.988,120.561,83.139z"/>
	<path fill="#1257A7" d="M39.34,79.108c1.143-1.252,2.165-2.373,3.256-3.569c0.291,0.214,0.56,0.411,0.852,0.626
		c-1.086,1.194-2.133,2.346-3.251,3.576C39.906,79.527,39.639,79.329,39.34,79.108z"/>
	<path fill="#003C99" d="M84.242,50.4c-0.081-0.565-0.237-1.131-0.229-1.694c0.028-1.753,0.121-3.506,0.189-5.259
		C84.217,45.765,84.229,48.082,84.242,50.4z"/>
	<path fill="#F2AC27" d="M107.602,67.165c-13.242,19.083-37.849,16.094-48.444,2.019c-0.586-0.778-0.611-1.248,0.035-2.01
		c3.214-3.786,6.884-7.011,11.249-9.407c7.155-3.93,14.577-4.45,22.206-1.595C98.665,58.425,103.525,62.281,107.602,67.165z
		 M69.548,75.65c0.169,0.094,0.338,0.187,0.507,0.28c0.32,0.147,0.642,0.297,0.962,0.444c0.399,0.168,0.8,0.337,1.199,0.506
		c0.165,0.063,0.329,0.122,0.494,0.184c0.644,0.219,1.286,0.438,1.929,0.654c0.15,0.039,0.3,0.077,0.449,0.115
		c2.411,0.378,4.822,0.755,7.232,1.133c0.64,0.001,1.279,0.002,1.92,0.003c3.215,0.015,6.244-0.762,9.136-2.134
		c0.799-0.4,1.599-0.804,2.396-1.205c0.272-0.158,0.547-0.318,0.819-0.479c0.128-0.078,0.257-0.156,0.384-0.234
		c0.248-0.162,0.496-0.324,0.744-0.485l-0.01,0.011c0.245-0.168,0.491-0.337,0.736-0.505c0.396-0.291,0.793-0.582,1.188-0.872
		c0.236-0.192,0.473-0.385,0.709-0.577c0.245-0.201,0.49-0.402,0.734-0.604c0.306-0.281,0.611-0.563,0.917-0.847
		c0.562-0.563,1.121-1.128,1.682-1.691c0.205-0.224,0.41-0.446,0.615-0.669c0.274-0.336,0.55-0.673,0.825-1.01
		c0.009-0.257,0.018-0.514,0.025-0.771c-0.285-0.313-0.57-0.624-0.856-0.937c-0.669-0.67-1.339-1.342-2.009-2.012
		c-0.405-0.359-0.813-0.717-1.219-1.076c-0.088-0.074-0.175-0.146-0.261-0.221c-0.313-0.247-0.625-0.495-0.937-0.742
		c-0.239-0.178-0.479-0.357-0.719-0.536c-0.457-0.309-0.914-0.618-1.371-0.926c-0.267-0.163-0.531-0.326-0.797-0.489
		c-0.136-0.077-0.27-0.152-0.404-0.229c-0.178-0.097-0.357-0.192-0.536-0.287l0.022,0.016c-0.65-0.333-1.301-0.667-1.949-1.001
		c-0.162-0.065-0.322-0.132-0.482-0.198c-1.461-0.507-2.893-1.138-4.389-1.499c-5.178-1.25-10.323-1.387-15.333,0.805
		c-0.234,0.096-0.47,0.19-0.705,0.287c-0.918,0.465-1.836,0.931-2.754,1.396c-0.127,0.076-0.255,0.152-0.383,0.229
		c-0.185,0.114-0.37,0.229-0.555,0.345c-0.051,0-0.089,0.021-0.116,0.064l-0.046,0.024c-0.482,0.33-0.966,0.66-1.448,0.991
		c-0.239,0.177-0.478,0.354-0.716,0.532c-0.313,0.247-0.627,0.493-0.939,0.74c-0.086,0.073-0.173,0.147-0.259,0.222
		c-0.327,0.278-0.654,0.559-0.981,0.839c-0.382,0.365-0.763,0.729-1.145,1.093l-0.013,0.013c-0.075,0.075-0.15,0.149-0.226,0.226
		l-0.013,0.013c-0.363,0.382-0.728,0.764-1.091,1.146c-0.28,0.326-0.562,0.653-0.843,0.98c-0.193,0.234-0.387,0.468-0.58,0.701
		c-0.052,0.072-0.104,0.145-0.154,0.218c0,0.277,0.001,0.553,0.002,0.83c0.369,0.475,0.739,0.949,1.109,1.424
		c0.358,0.383,0.717,0.768,1.075,1.151l0.008,0.008c0.384,0.36,0.768,0.719,1.15,1.079c0.248,0.203,0.496,0.407,0.744,0.611
		c0.234,0.186,0.469,0.371,0.703,0.557c0.078,0.057,0.156,0.114,0.234,0.171c0.242,0.17,0.484,0.34,0.727,0.51l-0.01-0.012
		c0.246,0.166,0.493,0.331,0.74,0.497c0.123,0.075,0.246,0.15,0.369,0.227c0.276,0.164,0.554,0.329,0.83,0.494
		c0.135,0.074,0.269,0.148,0.403,0.224c0.183,0.093,0.365,0.185,0.548,0.276L69.548,75.65z"/>
	<path fill="#FCFDFD" d="M111.396,85.042c0.03-0.029,0.059-0.056,0.086-0.081c0.025,0.054,0.062,0.104,0.072,0.16
		c0.006,0.021-0.047,0.052-0.072,0.079C111.454,85.147,111.426,85.096,111.396,85.042z"/>
	<path fill="#F5F7FB" d="M37.113,72.402c1.196,1.05,1.294,1.696,0.494,2.571c-0.808,0.882-1.652,0.839-2.686-0.228
		C35.633,73.986,36.349,73.221,37.113,72.402z"/>
	<path fill="#F8FAFC" d="M60.312,86.8c-0.044,0.887-0.269,1.691-1.206,1.699c-1.017,0.008-1.259-0.831-1.245-1.693
		c0.012-0.808,0.221-1.6,1.196-1.62C60.146,85.161,60.226,86.055,60.312,86.8z"/>
	<path fill="#F1F5F9" d="M124.518,77.385c-0.246-0.336-0.492-0.672-0.983-1.347c0.759,0,1.22,0,1.681,0
		c-0.066,0.455-0.132,0.911-0.197,1.366C124.85,77.398,124.684,77.393,124.518,77.385z"/>
	<path fill="#F5F7FB" d="M80.887,90.694c0-0.48,0-0.866,0-1.631c0.571,0.348,1.261,0.548,1.296,0.829
		C82.281,90.691,81.641,90.792,80.887,90.694z"/>
	<path fill="#1E52A2" d="M96.977,74.919c-0.129,0.078-0.256,0.156-0.385,0.234c-0.273,0.159-0.547,0.319-0.818,0.479
		c-0.799,0.401-1.599,0.805-2.396,1.205c-0.202-0.031-0.438-0.147-0.604-0.085c-2.532,0.973-5.086,1.825-7.855,1.752
		c-0.223-0.006-0.451,0.305-0.677,0.468c-0.642-0.002-1.28-0.003-1.921-0.004c-0.305-0.162-0.594-0.422-0.916-0.472
		c-1.747-0.271-3.501-0.501-5.256-0.718c-0.346-0.042-0.706,0.035-1.061,0.057c-0.149-0.038-0.299-0.076-0.449-0.115
		c-0.643-0.218-1.285-0.437-1.929-0.654c-0.165-0.062-0.329-0.121-0.494-0.184c-0.399-0.169-0.8-0.338-1.199-0.506
		c-0.32-0.147-0.642-0.297-0.962-0.444c-0.169-0.095-0.338-0.188-0.507-0.28l0.024,0.019c-0.183-0.093-0.365-0.186-0.548-0.276
		c-0.135-0.074-0.269-0.148-0.403-0.224c-0.276-0.165-0.554-0.33-0.83-0.495c-0.123-0.074-0.246-0.149-0.369-0.226
		c-0.247-0.166-0.494-0.331-0.74-0.497l0.01,0.012c-0.242-0.17-0.484-0.34-0.727-0.51c-0.078-0.057-0.156-0.114-0.234-0.171
		c-0.234-0.186-0.469-0.371-0.703-0.557c-0.248-0.204-0.496-0.408-0.744-0.612c0.014-0.782-0.437-1.07-1.15-1.078l-0.008-0.008
		c-0.008-0.711-0.293-1.164-1.075-1.151c-0.37-0.475-0.74-0.949-1.109-1.424c-0.001-0.277-0.002-0.554-0.002-0.83
		c0.051-0.073,0.103-0.146,0.154-0.218c0.193-0.233,0.387-0.467,0.58-0.701c0.281-0.327,0.563-0.654,0.843-0.98
		c0.786,0.021,1.079-0.429,1.091-1.146l0.013-0.013c0.075-0.075,0.15-0.15,0.226-0.226l0.013-0.013
		c0.718-0.012,1.167-0.306,1.145-1.093c0.327-0.28,0.654-0.561,0.981-0.839c0.086-0.074,0.173-0.147,0.259-0.222
		c0.313-0.247,0.626-0.493,0.939-0.74c0.238-0.178,0.477-0.354,0.716-0.532c0.482-0.331,0.966-0.661,1.448-0.991
		c0.045,0.052,0.089,0.104,0.134,0.155c-0.029-0.061-0.059-0.119-0.088-0.18c0.027-0.042,0.065-0.063,0.116-0.063
		c0.186-0.115,0.37-0.23,0.555-0.346c0.128-0.076,0.256-0.152,0.384-0.229c0.918-0.465,1.835-0.931,2.753-1.396
		c0.235-0.097,0.471-0.191,0.705-0.287c0.396-0.023,0.804,0.009,1.184-0.08c1.429-0.335,2.839-0.754,4.277-1.031
		c0.282-0.054,1.123-0.563,1.05,0.479c-0.166,0.054-0.333,0.106-0.5,0.16c-0.315,0.1-0.631,0.198-0.946,0.297
		c-0.457,0.238-0.919,0.468-1.37,0.718c-6.149,3.402-7.33,11.481-2.313,16.245c4.458,4.23,10.691,4.25,15.288,0.234
		c3.813-3.332,4.456-8.974,1.618-13.146c-1.276-1.877-3.061-3.106-5.072-4.056c-0.162-0.226-0.325-0.452-0.486-0.679
		c2.135,0.37,4.157,0.987,6.188,1.576c0.244,0.071,0.535-0.011,0.805-0.022c0.16,0.066,0.321,0.133,0.482,0.199
		c0.648,0.333,1.3,0.667,1.949,1l-0.022-0.016c0.179,0.096,0.358,0.19,0.537,0.287c0.135,0.077,0.269,0.153,0.403,0.229
		c0.266,0.163,0.53,0.326,0.797,0.489c0.457,0.309,0.914,0.618,1.371,0.926c0.24,0.179,0.479,0.357,0.719,0.536
		c0.313,0.247,0.624,0.495,0.938,0.742c0.086,0.073,0.172,0.146,0.26,0.221c0.406,0.359,0.813,0.717,1.22,1.076
		c0.249,1.09,0.921,1.758,2.008,2.012c0.286,0.313,0.571,0.625,0.856,0.937c-0.008,0.257-0.018,0.514-0.025,0.771
		c-0.275,0.336-0.551,0.673-0.825,1.01c-0.205,0.224-0.409,0.446-0.614,0.669c-0.562,0.563-1.121,1.128-1.683,1.691
		c-0.306,0.282-0.61,0.564-0.917,0.847c-0.244,0.201-0.488,0.402-0.734,0.604c-0.236,0.192-0.473,0.385-0.709,0.577
		c-0.396,0.29-0.791,0.581-1.188,0.872c-0.245,0.168-0.491,0.337-0.736,0.505l0.01-0.011C97.473,74.594,97.225,74.757,96.977,74.919
		z"/>
	<path fill="#1B50A2" d="M93.626,58.259c-0.271,0.012-0.56,0.094-0.806,0.022c-2.029-0.589-4.053-1.206-6.188-1.576
		c0.162,0.227,0.325,0.453,0.487,0.679c-2.197-0.712-4.431-0.889-6.705-0.452c0.073-1.042-0.768-0.532-1.05-0.479
		c-1.438,0.277-2.849,0.696-4.277,1.031c-0.38,0.089-0.788,0.057-1.184,0.08c5.01-2.191,10.155-2.056,15.333-0.805
		C90.732,57.121,92.165,57.751,93.626,58.259z"/>
	<path fill="#1B50A2" d="M84.24,78.971c0.226-0.163,0.455-0.474,0.677-0.468c2.771,0.073,5.323-0.779,7.854-1.752
		c0.166-0.063,0.401,0.054,0.604,0.085C90.484,78.209,87.455,78.984,84.24,78.971z"/>
	<path fill="#1B50A2" d="M75.088,77.835c0.354-0.021,0.715-0.099,1.061-0.057c1.755,0.217,3.509,0.447,5.256,0.718
		c0.322,0.05,0.611,0.31,0.916,0.472C79.91,78.59,77.499,78.213,75.088,77.835z"/>
	<path fill="#1B50A2" d="M104.286,65.961c-1.087-0.254-1.759-0.922-2.009-2.012C102.948,64.62,103.617,65.291,104.286,65.961z"/>
	<path fill="#1B50A2" d="M73.199,57.851c-0.918,0.465-1.835,0.931-2.753,1.396C71.363,58.782,72.281,58.316,73.199,57.851z"/>
	<path fill="#1B50A2" d="M96.059,59.458c-0.649-0.333-1.301-0.667-1.949-1C94.758,58.791,95.408,59.125,96.059,59.458z"/>
	<path fill="#1B50A2" d="M72.71,77.064c0.644,0.219,1.286,0.438,1.929,0.654C73.996,77.502,73.354,77.283,72.71,77.064z"/>
	<path fill="#1B50A2" d="M63.133,71.035c0.714,0.008,1.164,0.296,1.15,1.078C63.9,71.754,63.517,71.395,63.133,71.035z"/>
	<path fill="#1B50A2" d="M62.05,69.876c0.782-0.013,1.067,0.439,1.075,1.151C62.767,70.644,62.408,70.26,62.05,69.876z"/>
	<path fill="#1B50A2" d="M63.606,64.577c-0.012,0.717-0.305,1.166-1.091,1.146C62.879,65.341,63.243,64.959,63.606,64.577z"/>
	<path fill="#1B50A2" d="M65.002,63.233c0.022,0.788-0.427,1.081-1.145,1.093C64.239,63.962,64.62,63.598,65.002,63.233z"/>
	<path fill="#1B50A2" d="M71.017,76.376c0.399,0.168,0.8,0.337,1.199,0.506C71.816,76.713,71.416,76.544,71.017,76.376z"/>
	<path fill="#1B50A2" d="M101.078,71.885c0.306-0.281,0.611-0.563,0.917-0.847C101.689,71.321,101.384,71.604,101.078,71.885z"/>
	<path fill="#1B50A2" d="M96.977,74.919c0.248-0.162,0.496-0.324,0.744-0.485C97.473,74.594,97.225,74.757,96.977,74.919z"/>
	<path fill="#1B50A2" d="M67.791,74.675c0.276,0.164,0.554,0.329,0.83,0.494C68.345,75.004,68.067,74.839,67.791,74.675z"/>
	<path fill="#1B50A2" d="M95.771,75.632c0.272-0.158,0.547-0.318,0.819-0.479C96.318,75.313,96.045,75.473,95.771,75.632z"/>
	<path fill="#1B50A2" d="M66.682,73.951c0.246,0.166,0.493,0.331,0.74,0.497C67.175,74.282,66.928,74.117,66.682,73.951z"/>
	<path fill="#1B50A2" d="M61.673,66.704c-0.193,0.234-0.387,0.468-0.58,0.701C61.286,67.171,61.479,66.938,61.673,66.704z"/>
	<path fill="#1B50A2" d="M65.027,72.726c0.234,0.186,0.469,0.371,0.703,0.557C65.496,73.097,65.262,72.911,65.027,72.726z"/>
	<path fill="#1B50A2" d="M99.635,73.066c0.236-0.192,0.473-0.385,0.709-0.577C100.107,72.682,99.871,72.874,99.635,73.066z"/>
	<path fill="#1B50A2" d="M97.71,74.443c0.245-0.168,0.491-0.337,0.735-0.505C98.201,74.106,97.955,74.275,97.71,74.443z"/>
	<path fill="#1B50A2" d="M103.677,69.347c0.205-0.224,0.41-0.446,0.615-0.668C104.087,68.901,103.882,69.124,103.677,69.347z"/>
	<path fill="#1B50A2" d="M65.965,73.453c0.242,0.17,0.484,0.34,0.727,0.51C66.449,73.793,66.207,73.623,65.965,73.453z"/>
	<path fill="#1B50A2" d="M99.861,61.911c-0.238-0.178-0.479-0.356-0.717-0.536C99.384,61.554,99.623,61.732,99.861,61.911z"/>
	<path fill="#1B50A2" d="M67.897,60.9c-0.239,0.177-0.478,0.354-0.716,0.532C67.42,61.255,67.658,61.078,67.897,60.9z"/>
	<path fill="#1B50A2" d="M97.771,60.449c-0.266-0.163-0.53-0.326-0.797-0.489C97.241,60.123,97.507,60.286,97.771,60.449z"/>
	<path fill="#1B50A2" d="M70.063,59.476c-0.185,0.114-0.369,0.23-0.555,0.346C69.692,59.706,69.878,59.59,70.063,59.476z"/>
	<path fill="#1B50A2" d="M60.938,67.623c0,0.276,0.001,0.553,0.002,0.83C60.939,68.176,60.938,67.899,60.938,67.623z"/>
	<path fill="#1B50A2" d="M105.117,67.668c0.009-0.257,0.018-0.514,0.025-0.771C105.135,67.154,105.126,67.412,105.117,67.668z"/>
	<path fill="#1B50A2" d="M96.572,59.729c-0.18-0.097-0.358-0.191-0.537-0.287C96.214,59.537,96.395,59.633,96.572,59.729z"/>
	<path fill="#1B50A2" d="M69.024,75.392c0.183,0.092,0.365,0.185,0.548,0.276C69.39,75.576,69.207,75.484,69.024,75.392z"/>
	<path fill="#1B50A2" d="M69.548,75.65c0.169,0.094,0.338,0.187,0.507,0.28C69.886,75.837,69.717,75.744,69.548,75.65z"/>
	<path fill="#1B50A2" d="M69.392,59.885c0.029,0.061,0.059,0.12,0.088,0.18c-0.045-0.052-0.089-0.104-0.134-0.155L69.392,59.885z"/>
	<path fill="#1B50A2" d="M63.845,64.339c-0.075,0.075-0.15,0.15-0.226,0.226C63.694,64.489,63.77,64.414,63.845,64.339z"/>
	<path fill="#1B50A2" d="M101.059,62.873c-0.086-0.074-0.174-0.146-0.26-0.221C100.885,62.726,100.973,62.799,101.059,62.873z"/>
	<path fill="#1B50A2" d="M66.242,62.173c-0.086,0.073-0.173,0.147-0.259,0.222C66.069,62.32,66.156,62.247,66.242,62.173z"/>
	<path fill="#FAFAFC" d="M80.415,56.931c2.274-0.437,4.508-0.26,6.705,0.452c2.013,0.948,3.796,2.178,5.071,4.056
		c2.838,4.173,2.197,9.815-1.617,13.146c-4.596,4.016-10.83,3.996-15.288-0.234c-5.018-4.763-3.837-12.843,2.313-16.245
		c0.451-0.25,0.913-0.479,1.37-0.718c0.315-0.1,0.631-0.197,0.946-0.297C80.082,57.038,80.249,56.984,80.415,56.931z M83.003,75.139
		c3.827,0.012,6.772-2.907,7.162-7.097c0.468-5.034-3.911-9.111-8.658-8.063c-4.007,0.885-6.464,5.426-5.264,9.728
		C77.157,72.981,79.829,75.129,83.003,75.139z"/>
	<path fill="#1B50A2" d="M79.915,57.092c-0.315,0.1-0.631,0.198-0.946,0.297C79.284,57.29,79.6,57.191,79.915,57.092z"/>
	<path fill="#1F53A2" d="M83.003,75.139c-3.174-0.011-5.846-2.157-6.76-5.433c-1.2-4.301,1.257-8.842,5.264-9.728
		c4.747-1.048,9.126,3.028,8.658,8.063C89.775,72.231,86.83,75.15,83.003,75.139z M87.418,67.51
		c0.016-2.632-1.932-4.751-4.367-4.757c-2.378-0.005-4.331,2.069-4.37,4.643c-0.04,2.629,1.89,4.776,4.315,4.805
		C85.443,72.229,87.404,70.15,87.418,67.51z"/>
	<path fill="#F7AC26" d="M87.418,67.51c-0.014,2.64-1.975,4.718-4.422,4.69c-2.426-0.027-4.355-2.176-4.315-4.805
		c0.039-2.573,1.992-4.647,4.37-4.643C85.486,62.76,87.434,64.879,87.418,67.51z"/>
</g>
</svg>
