<svg xmlns="http://www.w3.org/2000/svg" viewBox="0 0 400 300">
  <defs>
    <linearGradient id="bgGradient" x1="0%" y1="0%" x2="100%" y2="100%">
      <stop offset="0%" stop-color="#F9F9FF" />
      <stop offset="100%" stop-color="#EEEEEE" />
    </linearGradient>
    <linearGradient id="primaryGradient" x1="0%" y1="0%" x2="100%" y2="100%">
      <stop offset="0%" stop-color="#4B6EFB" />
      <stop offset="100%" stop-color="#6E4BFB" />
    </linearGradient>
    <linearGradient id="accentGradient" x1="0%" y1="0%" x2="100%" y2="100%">
      <stop offset="0%" stop-color="#FB4B4B" />
      <stop offset="100%" stop-color="#e84393" />
    </linearGradient>
    <linearGradient id="secondaryGradient" x1="0%" y1="0%" x2="100%" y2="100%">
      <stop offset="0%" stop-color="#00cec9" />
      <stop offset="100%" stop-color="#81ecec" />
    </linearGradient>
  </defs>
  
  <!-- Background -->
  <rect x="0" y="0" width="400" height="300" rx="15" fill="url(#bgGradient)"/>
  
  <!-- Desk -->
  <rect x="50" y="200" width="300" height="15" rx="3" fill="#34495e"/>
  <rect x="70" y="215" width="10" height="60" fill="#34495e"/>
  <rect x="320" y="215" width="10" height="60" fill="#34495e"/>
  
  <!-- Computer -->
  <rect x="150" y="160" width="100" height="70" rx="5" fill="#333"/>
  <rect x="155" y="165" width="90" height="55" rx="2" fill="#F9F9FF"/>
  <rect x="195" y="230" width="10" height="10" fill="#333"/>
  <rect x="175" y="240" width="50" height="3" rx="1" fill="#333"/>
  
  <!-- Code on screen -->
  <rect x="165" y="175" width="70" height="5" rx="1" fill="url(#primaryGradient)" opacity="0.7"/>
  <rect x="165" y="185" width="50" height="5" rx="1" fill="url(#accentGradient)" opacity="0.7"/>
  <rect x="165" y="195" width="60" height="5" rx="1" fill="url(#secondaryGradient)" opacity="0.7"/>
  <rect x="165" y="205" width="40" height="5" rx="1" fill="url(#primaryGradient)" opacity="0.7"/>
  
  <!-- Person 1 (left) -->
  <circle cx="120" cy="150" r="20" fill="#FFD3B6"/>
  <rect x="105" y="170" width="30" height="40" rx="5" fill="url(#primaryGradient)"/>
  <path d="M120,170 L120,210" stroke="#2d3436" stroke-width="1"/>
  <rect x="105" y="210" width="10" height="15" fill="#2d3436"/>
  <rect x="125" y="210" width="10" height="15" fill="#2d3436"/>
  <path d="M115,150 L115,155 Q115,160 120,160 Q125,160 125,155 L125,150" fill="#2d3436"/>
  
  <!-- Person 2 (right) -->
  <circle cx="280" cy="150" r="20" fill="#FFD3B6"/>
  <rect x="265" y="170" width="30" height="40" rx="5" fill="url(#secondaryGradient)"/>
  <path d="M280,170 L280,210" stroke="#2d3436" stroke-width="1"/>
  <rect x="265" y="210" width="10" height="15" fill="#2d3436"/>
  <rect x="285" y="210" width="10" height="15" fill="#2d3436"/>
  <path d="M275,150 L275,155 Q275,160 280,160 Q285,160 285,155 L285,150" fill="#2d3436"/>
  
  <!-- Floating Elements -->
  <circle cx="80" cy="80" r="15" fill="url(#primaryGradient)" opacity="0.7"/>
  <circle cx="320" cy="60" r="10" fill="url(#secondaryGradient)" opacity="0.7"/>
  <circle cx="350" cy="120" r="8" fill="url(#accentGradient)" opacity="0.7"/>
  <path d="M60,120 L80,100 L60,80 L40,100 Z" fill="url(#primaryGradient)" opacity="0.5"/>
  <path d="M330,90 L345,105 L360,90 L345,75 Z" fill="url(#accentGradient)" opacity="0.5"/>
  <rect x="40" y="150" width="20" height="20" rx="5" fill="url(#secondaryGradient)" opacity="0.5"/>
</svg>